<?xml version="1.0" encoding="UTF-8" standalone="no"?>
<svg width="128px" height="33px" viewBox="0 0 128 33" version="1.1" xmlns="http://www.w3.org/2000/svg" xmlns:xlink="http://www.w3.org/1999/xlink" xmlns:sketch="http://www.bohemiancoding.com/sketch/ns">
    <!-- Generator: Sketch 3.5.2 (25235) - http://www.bohemiancoding.com/sketch -->
    <title>Logo_PC_Eng</title>
    <desc>Created with Sketch.</desc>
    <defs></defs>
    <g id="Page-1" stroke="none" stroke-width="1" fill="none" fill-rule="evenodd" sketch:type="MSPage">
        <g id="Desktop" sketch:type="MSArtboardGroup" transform="translate(-130.000000, -6927.000000)" fill="#000000">
            <g id="contacts" sketch:type="MSLayerGroup" transform="translate(-47.000000, 6876.000000)">
                <g id="Logo_PC_Eng" transform="translate(177.000000, 51.000000)" sketch:type="MSShapeGroup">
                    <g id="Group">
                        <path d="M0,23.2736842 L0,0 L12.1945946,0 C15.9135135,0 18.9405405,1.04210526 21.2756757,3.16973684 C23.6108108,5.29736842 24.7783784,8.11973684 24.7783784,11.6802632 C24.7783784,15.2407895 23.6540541,18.0631579 21.4054054,20.1473684 C19.1567568,22.2315789 16.0864865,23.2736842 12.1945946,23.2736842 L7.00540541,23.2736842 L0,32.8697368 L0,23.2736842 L0,23.2736842 Z M7.04864865,16.7605263 L12.1081081,16.7605263 C13.6648649,16.7605263 14.9621622,16.2828947 15.9567568,15.3710526 C16.9513514,14.4592105 17.4702703,13.2 17.4702703,11.6802632 C17.4702703,9.9 16.9513514,8.59736842 15.9135135,7.77236842 C14.8756757,6.94736842 13.6216216,6.55657895 12.0648649,6.55657895 L7.04864865,6.55657895 L7.04864865,16.7605263 L7.04864865,16.7605263 Z" id="Shape"></path>
                        <path d="M31.2648649,0.738157895 L36.2378378,0.738157895 C39.7405405,0.738157895 41.7297297,2.30131579 41.7297297,5.34078947 L41.7297297,5.42763158 C41.7297297,8.46710526 39.6108108,9.94342105 36.3243243,9.94342105 L34.5081081,9.94342105 L34.5081081,15.1973684 L31.2648649,15.1973684 L31.2648649,0.738157895 L31.2648649,0.738157895 Z M36.1513514,7.64210526 C37.7513514,7.64210526 38.572973,6.86052632 38.572973,5.42763158 L38.572973,5.34078947 C38.572973,3.82105263 37.7081081,3.21315789 36.1513514,3.21315789 L34.5081081,3.21315789 L34.5081081,7.64210526 L36.1513514,7.64210526 L36.1513514,7.64210526 Z" id="Shape"></path>
                        <path d="M43.5891892,4.60263158 L46.4864865,4.60263158 L46.4864865,6.6 C47.1351351,5.16710526 48.172973,4.42894737 49.9027027,4.42894737 L49.9027027,7.16447368 C47.7405405,7.16447368 46.4864865,7.85921053 46.4864865,9.85657895 L46.4864865,15.1539474 L43.5891892,15.1539474 L43.5891892,4.60263158 L43.5891892,4.60263158 Z" id="Shape"></path>
                        <path d="M50.9405405,12.2447368 C50.9405405,9.76973684 53.1891892,8.85789474 56.3891892,8.85789474 L57.5567568,8.85789474 L57.5567568,8.42368421 C57.5567568,7.16447368 57.1675676,6.46973684 55.827027,6.46973684 C54.7027027,6.46973684 54.1405405,7.03421053 54.0540541,7.94605263 L51.2864865,7.94605263 C51.4594595,5.42763158 53.4486486,4.34210526 56,4.34210526 C58.5513514,4.34210526 60.4108108,5.38421053 60.4108108,8.25 L60.4108108,15.1105263 L57.5567568,15.1105263 L57.5567568,13.8947368 C56.9513514,14.7631579 56.0432432,15.3710526 54.4,15.3710526 C52.5405405,15.4144737 50.9405405,14.4592105 50.9405405,12.2447368 M57.6,11.4631579 L57.6,10.5947368 L56.4756757,10.5947368 C54.7891892,10.5947368 53.7945946,10.9421053 53.7945946,12.0710526 C53.7945946,12.8526316 54.2702703,13.3302632 55.3081081,13.3302632 C56.6054054,13.3736842 57.6,12.6355263 57.6,11.4631579" id="Shape"></path>
                        <path d="M62.3135135,10.0302632 L62.3135135,9.85657895 C62.3135135,6.42631579 64.7351351,4.38552632 67.7189189,4.38552632 C70.1405405,4.38552632 72.3891892,5.47105263 72.6486486,8.46710526 L69.8810811,8.46710526 C69.6648649,7.25131579 68.9297297,6.68684211 67.7621622,6.68684211 C66.2486486,6.68684211 65.2540541,7.81578947 65.2540541,9.85657895 L65.2540541,9.98684211 C65.2540541,12.1144737 66.2054054,13.2 67.8054054,13.2 C68.972973,13.2 69.9243243,12.5052632 70.0540541,11.1592105 L72.6918919,11.1592105 C72.5189189,13.6776316 70.7027027,15.4144737 67.6756757,15.4144737 C64.6486486,15.4144737 62.3135135,13.4605263 62.3135135,10.0302632" id="Shape"></path>
                        <path d="M75.027027,12.0276316 L75.027027,6.68684211 L73.6864865,6.68684211 L73.6864865,4.60263158 L75.027027,4.60263158 L75.027027,2.34473684 L77.9243243,2.34473684 L77.9243243,4.64605263 L80.1297297,4.64605263 L80.1297297,6.73026316 L77.9243243,6.73026316 L77.9243243,11.8105263 C77.9243243,12.6789474 78.3567568,13.0697368 79.0918919,13.0697368 C79.5243243,13.0697368 79.8702703,13.0263158 80.2162162,12.8526316 L80.2162162,15.1105263 C79.827027,15.2407895 79.2216216,15.4144737 78.4432432,15.4144737 C76.1945946,15.3710526 75.027027,14.2421053 75.027027,12.0276316" id="Shape"></path>
                        <path d="M82.0324324,1.60657895 C82.0324324,0.694736842 82.7675676,0 83.6756757,0 C84.627027,0 85.3621622,0.694736842 85.3621622,1.60657895 C85.3621622,2.51842105 84.627027,3.21315789 83.6756757,3.21315789 C82.7243243,3.16973684 82.0324324,2.51842105 82.0324324,1.60657895 L82.0324324,1.60657895 Z M82.2486486,4.60263158 L85.1459459,4.60263158 L85.1459459,15.1539474 L82.2486486,15.1539474 L82.2486486,4.60263158 L82.2486486,4.60263158 Z" id="Shape"></path>
                        <path d="M87.1351351,10.0302632 L87.1351351,9.85657895 C87.1351351,6.42631579 89.5567568,4.38552632 92.5405405,4.38552632 C94.9621622,4.38552632 97.2108108,5.47105263 97.4702703,8.46710526 L94.7027027,8.46710526 C94.4864865,7.25131579 93.7513514,6.68684211 92.5837838,6.68684211 C91.0702703,6.68684211 90.0756757,7.81578947 90.0756757,9.85657895 L90.0756757,9.98684211 C90.0756757,12.1144737 91.027027,13.2 92.627027,13.2 C93.7945946,13.2 94.7459459,12.5052632 94.8756757,11.1592105 L97.5135135,11.1592105 C97.3405405,13.6776316 95.5243243,15.4144737 92.4972973,15.4144737 C89.4702703,15.4144737 87.1351351,13.4605263 87.1351351,10.0302632" id="Shape"></path>
                        <path d="M99.3297297,11.4197368 L99.3297297,4.60263158 L102.227027,4.60263158 L102.227027,10.9855263 C102.227027,12.4184211 102.789189,13.1131579 104.043243,13.1131579 C105.254054,13.1131579 106.248649,12.3315789 106.248649,10.8118421 L106.248649,4.60263158 L109.145946,4.60263158 L109.145946,15.1539474 L106.248649,15.1539474 L106.248649,13.5039474 C105.686486,14.5894737 104.648649,15.3710526 102.918919,15.3710526 C100.843243,15.4144737 99.3297297,14.1986842 99.3297297,11.4197368" id="Shape"></path>
                        <path d="M111.697297,4.60263158 L114.594595,4.60263158 L114.594595,6.20921053 C115.113514,5.21052632 116.237838,4.34210526 117.794595,4.34210526 C119.178378,4.34210526 120.216216,4.90657895 120.735135,6.16578947 C121.6,4.90657895 122.940541,4.34210526 124.281081,4.34210526 C126.227027,4.34210526 127.740541,5.55789474 127.740541,8.38026316 L127.740541,15.1539474 L124.843243,15.1539474 L124.843243,8.72763158 C124.843243,7.38157895 124.237838,6.77368421 123.2,6.77368421 C122.075676,6.77368421 121.167568,7.51184211 121.167568,8.94473684 L121.167568,15.1973684 L118.27027,15.1973684 L118.27027,8.72763158 C118.27027,7.38157895 117.664865,6.77368421 116.627027,6.77368421 C115.502703,6.77368421 114.594595,7.51184211 114.594595,8.94473684 L114.594595,15.1973684 L111.697297,15.1973684 L111.697297,4.60263158 L111.697297,4.60263158 Z" id="Shape"></path>
                        <path d="M30.3567568,26.3131579 L30.3567568,26.1394737 C30.3567568,22.7092105 32.7783784,20.6684211 35.7621622,20.6684211 C38.1837838,20.6684211 40.4324324,21.7539474 40.6918919,24.75 L37.9243243,24.75 C37.7081081,23.5342105 36.972973,22.9697368 35.8054054,22.9697368 C34.2918919,22.9697368 33.2972973,24.0986842 33.2972973,26.1394737 L33.2972973,26.3131579 C33.2972973,28.4407895 34.2486486,29.5263158 35.8486486,29.5263158 C37.0162162,29.5263158 37.9675676,28.8315789 38.0972973,27.4855263 L40.7351351,27.4855263 C40.6486486,29.9605263 38.8324324,31.6973684 35.7621622,31.6973684 C32.6918919,31.6973684 30.3567568,29.7434211 30.3567568,26.3131579" id="Shape"></path>
                        <path d="M41.9891892,26.3131579 L41.9891892,26.1394737 C41.9891892,22.7960526 44.3243243,20.6684211 47.3945946,20.6684211 C50.1189189,20.6684211 52.5405405,22.275 52.5405405,26.0526316 L52.5405405,26.8776316 L44.972973,26.8776316 C45.0594595,28.6144737 46.0108108,29.6565789 47.5675676,29.6565789 C48.9081081,29.6565789 49.5567568,29.0921053 49.772973,28.1802632 L52.5405405,28.1802632 C52.1945946,30.4815789 50.3783784,31.7407895 47.5243243,31.7407895 C44.3243243,31.6973684 41.9891892,29.7 41.9891892,26.3131579 L41.9891892,26.3131579 Z M49.6864865,25.0539474 C49.6,23.4473684 48.7783784,22.7092105 47.3945946,22.7092105 C46.0972973,22.7092105 45.1891892,23.5776316 44.972973,25.0539474 L49.6864865,25.0539474 L49.6864865,25.0539474 Z" id="Shape"></path>
                        <path d="M81.427027,26.3131579 L81.427027,26.1394737 C81.427027,22.7960526 83.7621622,20.6684211 86.8324324,20.6684211 C89.5567568,20.6684211 91.9783784,22.275 91.9783784,26.0526316 L91.9783784,26.8776316 L84.4108108,26.8776316 C84.4972973,28.6144737 85.4486486,29.6565789 87.0054054,29.6565789 C88.3459459,29.6565789 88.9945946,29.0921053 89.2108108,28.1802632 L91.9783784,28.1802632 C91.6324324,30.4815789 89.8162162,31.7407895 86.9621622,31.7407895 C83.7621622,31.6973684 81.427027,29.7 81.427027,26.3131579 L81.427027,26.3131579 Z M89.1243243,25.0539474 C89.0378378,23.4473684 88.2162162,22.7092105 86.8324324,22.7092105 C85.5351351,22.7092105 84.627027,23.5776316 84.4108108,25.0539474 L89.1243243,25.0539474 L89.1243243,25.0539474 Z" id="Shape"></path>
                        <path d="M54.4432432,20.8855263 L57.3405405,20.8855263 L57.3405405,22.5789474 C57.8594595,21.5368421 59.027027,20.6684211 60.7567568,20.6684211 C62.8324324,20.6684211 64.3027027,21.9276316 64.3027027,24.75 L64.3027027,31.4802632 L61.4054054,31.4802632 L61.4054054,25.1407895 C61.4054054,23.7078947 60.8432432,23.0131579 59.5459459,23.0131579 C58.2918919,23.0131579 57.3405405,23.7947368 57.3405405,25.3144737 L57.3405405,31.3934211 L54.4432432,31.3934211 L54.4432432,20.8855263 L54.4432432,20.8855263 Z" id="Shape"></path>
                        <path d="M67.2432432,28.3105263 L67.2432432,22.9697368 L65.9027027,22.9697368 L65.9027027,20.8855263 L67.2432432,20.8855263 L67.2432432,18.5842105 L70.1405405,18.5842105 L70.1405405,20.8855263 L72.3459459,20.8855263 L72.3459459,22.9697368 L70.1405405,22.9697368 L70.1405405,28.05 C70.1405405,28.9184211 70.572973,29.3092105 71.3081081,29.3092105 C71.7405405,29.3092105 72.0864865,29.2657895 72.4324324,29.0921053 L72.4324324,31.35 C72.0432432,31.4802632 71.4378378,31.6539474 70.6594595,31.6539474 C68.4108108,31.6539474 67.2432432,30.525 67.2432432,28.3105263" id="Shape"></path>
                        <path d="M74.3783784,20.8855263 L77.2756757,20.8855263 L77.2756757,22.8828947 C77.9243243,21.45 78.9621622,20.7118421 80.6918919,20.7118421 L80.6918919,23.4473684 C78.5297297,23.4473684 77.2756757,24.1421053 77.2756757,26.1394737 L77.2756757,31.4368421 L74.3783784,31.4368421 L74.3783784,20.8855263 L74.3783784,20.8855263 Z" id="Shape"></path>
                    </g>
                </g>
            </g>
        </g>
    </g>
</svg>