<?xml version="1.0" encoding="UTF-8" standalone="no"?>
<svg width="218px" height="56px" viewBox="0 0 218 56" version="1.1" xmlns="http://www.w3.org/2000/svg" xmlns:xlink="http://www.w3.org/1999/xlink" xmlns:sketch="http://www.bohemiancoding.com/sketch/ns">
    <!-- Generator: Sketch 3.5.2 (25235) - http://www.bohemiancoding.com/sketch -->
    <title>Logo_PC_Eng</title>
    <desc>Created with Sketch.</desc>
    <defs></defs>
    <g id="Page-1" stroke="none" stroke-width="1" fill="none" fill-rule="evenodd" sketch:type="MSPage">
        <g id="Desktop" sketch:type="MSArtboardGroup" transform="translate(-112.000000, -50.000000)" fill="#000000">
            <g id="header" sketch:type="MSLayerGroup" transform="translate(0.000000, -58.000000)">
                <g id="Logo_PC_Eng" transform="translate(112.000000, 108.000000)" sketch:type="MSShapeGroup">
                    <g id="Group">
                        <path d="M0,39.4947368 L0,0 L20.7689189,0 C27.1027027,0 32.2581081,1.76842105 36.2351351,5.37894737 C40.2121622,8.98947368 42.2006757,13.7789474 42.2006757,19.8210526 C42.2006757,25.8631579 40.2858108,30.6526316 36.4560811,34.1894737 C32.6263514,37.7263158 27.3972973,39.4947368 20.7689189,39.4947368 L11.9310811,39.4947368 L0,55.7789474 L0,39.4947368 L0,39.4947368 Z M12.0047297,28.4421053 L20.6216216,28.4421053 C23.272973,28.4421053 25.4824324,27.6315789 27.1763514,26.0842105 C28.8702703,24.5368421 29.7540541,22.4 29.7540541,19.8210526 C29.7540541,16.8 28.8702703,14.5894737 27.1027027,13.1894737 C25.3351351,11.7894737 23.1993243,11.1263158 20.547973,11.1263158 L12.0047297,11.1263158 L12.0047297,28.4421053 L12.0047297,28.4421053 Z" id="Shape"></path>
                        <path d="M53.247973,1.25263158 L61.7175676,1.25263158 C67.6831081,1.25263158 71.0709459,3.90526316 71.0709459,9.06315789 L71.0709459,9.21052632 C71.0709459,14.3684211 67.4621622,16.8736842 61.8648649,16.8736842 L58.7716216,16.8736842 L58.7716216,25.7894737 L53.247973,25.7894737 L53.247973,1.25263158 L53.247973,1.25263158 Z M61.5702703,12.9684211 C64.2952703,12.9684211 65.6945946,11.6421053 65.6945946,9.21052632 L65.6945946,9.06315789 C65.6945946,6.48421053 64.2216216,5.45263158 61.5702703,5.45263158 L58.7716216,5.45263158 L58.7716216,12.9684211 L61.5702703,12.9684211 L61.5702703,12.9684211 Z" id="Shape"></path>
                        <path d="M74.2378378,7.81052632 L79.1722973,7.81052632 L79.1722973,11.2 C80.277027,8.76842105 82.0445946,7.51578947 84.9905405,7.51578947 L84.9905405,12.1578947 C81.3081081,12.1578947 79.1722973,13.3368421 79.1722973,16.7263158 L79.1722973,25.7157895 L74.2378378,25.7157895 L74.2378378,7.81052632 L74.2378378,7.81052632 Z" id="Shape"></path>
                        <path d="M86.7581081,20.7789474 C86.7581081,16.5789474 90.5878378,15.0315789 96.0378378,15.0315789 L98.0263514,15.0315789 L98.0263514,14.2947368 C98.0263514,12.1578947 97.3635135,10.9789474 95.0804054,10.9789474 C93.1655405,10.9789474 92.2081081,11.9368421 92.0608108,13.4842105 L87.3472973,13.4842105 C87.6418919,9.21052632 91.0297297,7.36842105 95.375,7.36842105 C99.7202703,7.36842105 102.887162,9.13684211 102.887162,14 L102.887162,25.6421053 L98.0263514,25.6421053 L98.0263514,23.5789474 C96.9952703,25.0526316 95.4486486,26.0842105 92.65,26.0842105 C89.4831081,26.1578947 86.7581081,24.5368421 86.7581081,20.7789474 M98.1,19.4526316 L98.1,17.9789474 L96.1851351,17.9789474 C93.3128378,17.9789474 91.6189189,18.5684211 91.6189189,20.4842105 C91.6189189,21.8105263 92.4290541,22.6210526 94.1966216,22.6210526 C96.4060811,22.6947368 98.1,21.4421053 98.1,19.4526316" id="Shape"></path>
                        <path d="M106.127703,17.0210526 L106.127703,16.7263158 C106.127703,10.9052632 110.252027,7.44210526 115.333784,7.44210526 C119.458108,7.44210526 123.287838,9.28421053 123.72973,14.3684211 L119.016216,14.3684211 C118.647973,12.3052632 117.395946,11.3473684 115.407432,11.3473684 C112.82973,11.3473684 111.135811,13.2631579 111.135811,16.7263158 L111.135811,16.9473684 C111.135811,20.5578947 112.756081,22.4 115.481081,22.4 C117.469595,22.4 119.089865,21.2210526 119.310811,18.9368421 L123.803378,18.9368421 C123.508784,23.2105263 120.415541,26.1578947 115.260135,26.1578947 C110.10473,26.1578947 106.127703,22.8421053 106.127703,17.0210526" id="Shape"></path>
                        <path d="M127.780405,20.4105263 L127.780405,11.3473684 L125.497297,11.3473684 L125.497297,7.81052632 L127.780405,7.81052632 L127.780405,3.97894737 L132.714865,3.97894737 L132.714865,7.88421053 L136.470946,7.88421053 L136.470946,11.4210526 L132.714865,11.4210526 L132.714865,20.0421053 C132.714865,21.5157895 133.451351,22.1789474 134.703378,22.1789474 C135.439865,22.1789474 136.029054,22.1052632 136.618243,21.8105263 L136.618243,25.6421053 C135.955405,25.8631579 134.924324,26.1578947 133.598649,26.1578947 C129.768919,26.0842105 127.780405,24.1684211 127.780405,20.4105263" id="Shape"></path>
                        <path d="M139.711486,2.72631579 C139.711486,1.17894737 140.963514,0 142.510135,0 C144.130405,0 145.382432,1.17894737 145.382432,2.72631579 C145.382432,4.27368421 144.130405,5.45263158 142.510135,5.45263158 C140.889865,5.37894737 139.711486,4.27368421 139.711486,2.72631579 L139.711486,2.72631579 Z M140.07973,7.81052632 L145.014189,7.81052632 L145.014189,25.7157895 L140.07973,25.7157895 L140.07973,7.81052632 L140.07973,7.81052632 Z" id="Shape"></path>
                        <path d="M148.402027,17.0210526 L148.402027,16.7263158 C148.402027,10.9052632 152.526351,7.44210526 157.608108,7.44210526 C161.732432,7.44210526 165.562162,9.28421053 166.004054,14.3684211 L161.290541,14.3684211 C160.922297,12.3052632 159.67027,11.3473684 157.681757,11.3473684 C155.104054,11.3473684 153.410135,13.2631579 153.410135,16.7263158 L153.410135,16.9473684 C153.410135,20.5578947 155.030405,22.4 157.755405,22.4 C159.743919,22.4 161.364189,21.2210526 161.585135,18.9368421 L166.077703,18.9368421 C165.783108,23.2105263 162.689865,26.1578947 157.534459,26.1578947 C152.379054,26.1578947 148.402027,22.8421053 148.402027,17.0210526" id="Shape"></path>
                        <path d="M169.170946,19.3789474 L169.170946,7.81052632 L174.105405,7.81052632 L174.105405,18.6421053 C174.105405,21.0736842 175.062838,22.2526316 177.198649,22.2526316 C179.260811,22.2526316 180.95473,20.9263158 180.95473,18.3473684 L180.95473,7.81052632 L185.889189,7.81052632 L185.889189,25.7157895 L180.95473,25.7157895 L180.95473,22.9157895 C179.997297,24.7578947 178.22973,26.0842105 175.283784,26.0842105 C171.748649,26.1578947 169.170946,24.0947368 169.170946,19.3789474" id="Shape"></path>
                        <path d="M190.234459,7.81052632 L195.168919,7.81052632 L195.168919,10.5368421 C196.052703,8.84210526 197.967568,7.36842105 200.618919,7.36842105 C202.975676,7.36842105 204.743243,8.32631579 205.627027,10.4631579 C207.1,8.32631579 209.383108,7.36842105 211.666216,7.36842105 C214.980405,7.36842105 217.558108,9.43157895 217.558108,14.2210526 L217.558108,25.7157895 L212.623649,25.7157895 L212.623649,14.8105263 C212.623649,12.5263158 211.592568,11.4947368 209.825,11.4947368 C207.910135,11.4947368 206.363514,12.7473684 206.363514,15.1789474 L206.363514,25.7894737 L201.429054,25.7894737 L201.429054,14.8105263 C201.429054,12.5263158 200.397973,11.4947368 198.630405,11.4947368 C196.715541,11.4947368 195.168919,12.7473684 195.168919,15.1789474 L195.168919,25.7894737 L190.234459,25.7894737 L190.234459,7.81052632 L190.234459,7.81052632 Z" id="Shape"></path>
                        <path d="M51.7013514,44.6526316 L51.7013514,44.3578947 C51.7013514,38.5368421 55.8256757,35.0736842 60.9074324,35.0736842 C65.0317568,35.0736842 68.8614865,36.9157895 69.3033784,42 L64.5898649,42 C64.2216216,39.9368421 62.9695946,38.9789474 60.9810811,38.9789474 C58.4033784,38.9789474 56.7094595,40.8947368 56.7094595,44.3578947 L56.7094595,44.6526316 C56.7094595,48.2631579 58.3297297,50.1052632 61.0547297,50.1052632 C63.0432432,50.1052632 64.6635135,48.9263158 64.8844595,46.6421053 L69.377027,46.6421053 C69.2297297,50.8421053 66.1364865,53.7894737 60.9074324,53.7894737 C55.6783784,53.7894737 51.7013514,50.4736842 51.7013514,44.6526316" id="Shape"></path>
                        <path d="M71.5128378,44.6526316 L71.5128378,44.3578947 C71.5128378,38.6842105 75.4898649,35.0736842 80.7189189,35.0736842 C85.3587838,35.0736842 89.4831081,37.8 89.4831081,44.2105263 L89.4831081,45.6105263 L76.5945946,45.6105263 C76.7418919,48.5578947 78.3621622,50.3263158 81.0135135,50.3263158 C83.2966216,50.3263158 84.4013514,49.3684211 84.7695946,47.8210526 L89.4831081,47.8210526 C88.8939189,51.7263158 85.8006757,53.8631579 80.9398649,53.8631579 C75.4898649,53.7894737 71.5128378,50.4 71.5128378,44.6526316 L71.5128378,44.6526316 Z M84.6222973,42.5157895 C84.475,39.7894737 83.0756757,38.5368421 80.7189189,38.5368421 C78.5094595,38.5368421 76.9628378,40.0105263 76.5945946,42.5157895 L84.6222973,42.5157895 L84.6222973,42.5157895 Z" id="Shape"></path>
                        <path d="M138.680405,44.6526316 L138.680405,44.3578947 C138.680405,38.6842105 142.657432,35.0736842 147.886486,35.0736842 C152.526351,35.0736842 156.650676,37.8 156.650676,44.2105263 L156.650676,45.6105263 L143.762162,45.6105263 C143.909459,48.5578947 145.52973,50.3263158 148.181081,50.3263158 C150.464189,50.3263158 151.568919,49.3684211 151.937162,47.8210526 L156.650676,47.8210526 C156.061486,51.7263158 152.968243,53.8631579 148.107432,53.8631579 C142.657432,53.7894737 138.680405,50.4 138.680405,44.6526316 L138.680405,44.6526316 Z M151.789865,42.5157895 C151.642568,39.7894737 150.243243,38.5368421 147.886486,38.5368421 C145.677027,38.5368421 144.130405,40.0105263 143.762162,42.5157895 L151.789865,42.5157895 L151.789865,42.5157895 Z" id="Shape"></path>
                        <path d="M92.7236486,35.4421053 L97.6581081,35.4421053 L97.6581081,38.3157895 C98.5418919,36.5473684 100.530405,35.0736842 103.476351,35.0736842 C107.011486,35.0736842 109.515541,37.2105263 109.515541,42 L109.515541,53.4210526 L104.581081,53.4210526 L104.581081,42.6631579 C104.581081,40.2315789 103.623649,39.0526316 101.414189,39.0526316 C99.2783784,39.0526316 97.6581081,40.3789474 97.6581081,42.9578947 L97.6581081,53.2736842 L92.7236486,53.2736842 L92.7236486,35.4421053 L92.7236486,35.4421053 Z" id="Shape"></path>
                        <path d="M114.523649,48.0421053 L114.523649,38.9789474 L112.240541,38.9789474 L112.240541,35.4421053 L114.523649,35.4421053 L114.523649,31.5368421 L119.458108,31.5368421 L119.458108,35.4421053 L123.214189,35.4421053 L123.214189,38.9789474 L119.458108,38.9789474 L119.458108,47.6 C119.458108,49.0736842 120.194595,49.7368421 121.446622,49.7368421 C122.183108,49.7368421 122.772297,49.6631579 123.361486,49.3684211 L123.361486,53.2 C122.698649,53.4210526 121.667568,53.7157895 120.341892,53.7157895 C116.512162,53.7157895 114.523649,51.8 114.523649,48.0421053" id="Shape"></path>
                        <path d="M126.675676,35.4421053 L131.610135,35.4421053 L131.610135,38.8315789 C132.714865,36.4 134.482432,35.1473684 137.428378,35.1473684 L137.428378,39.7894737 C133.745946,39.7894737 131.610135,40.9684211 131.610135,44.3578947 L131.610135,53.3473684 L126.675676,53.3473684 L126.675676,35.4421053 L126.675676,35.4421053 Z" id="Shape"></path>
                    </g>
                </g>
            </g>
        </g>
    </g>
</svg>